<svg width="1024" height="768" xmlns="http://www.w3.org/2000/svg">
 <!-- Created with Method Draw - http://github.com/duopixel/Method-Draw/ -->
 <g>
  <title>background</title>
  <rect fill="#fff" id="canvas_background" height="770" width="1026" y="-1" x="-1"/>
 </g>
 <g>
  <title>Layer 1</title>
  <path stroke="#000" id="svg_1" d="m619.505602,379.227848c-10.479702,-1.964457 -21.38697,-3.257886 -30.243671,-3.607988l-1.561921,-0.05835c0.357758,-0.875253 0.628259,-1.46848 0.715517,-1.556005c0.191968,-0.175051 0.349033,-0.914153 0.366484,-1.633806c0,-0.398726 0.157065,-1.692156 0.401387,-3.403762c2.399599,0.09725 5.584521,0.175051 9.057395,0.204226c13.411576,0.1167 27.442684,1.322605 37.067257,3.218986c5.73286,1.128104 7.626361,1.089204 3.394342,-0.05835c-4.284375,-1.157279 -16.989159,-2.85916 -27.111103,-3.598263c-6.797409,-0.515427 -16.544143,-0.709927 -22.285728,-0.602952c0.16579,-1.108654 0.357758,-2.343733 0.558452,-3.607988c0.811501,-4.891692 1.082001,-9.812559 1.099453,-19.605668c0.017452,-15.190503 -0.715517,-19.372268 -5.156956,-29.418228c-1.806243,-4.103964 -3.848084,-7.585526 -6.317489,-10.736437c2.155276,-7.08955 2.102921,-18.069113 -0.130887,-27.696897c-1.841147,-7.896728 -2.486857,-8.402429 -8.909056,-6.885324c-5.444908,1.29343 -9.807815,3.053661 -15.401061,6.194847c-2.643922,1.48793 -6.291312,3.802488 -8.935233,5.62107c-6.893393,-2.703559 -14.022383,-4.492966 -21.631292,-5.455744c-7.713619,-0.972503 -26.622458,-0.427901 -33.332609,0.953053c-6.561812,1.35178 -12.469188,3.005035 -17.818112,4.969492c-2.670099,-1.838031 -6.54436,-4.317915 -9.310443,-5.873921c-5.619424,-3.150911 -9.982331,-4.901417 -15.44469,-6.194847c-6.404747,-1.52683 -7.067909,-1.011404 -8.90033,6.885324c-2.268712,9.754209 -2.286163,20.918548 -0.043629,27.988648c0.261774,0.807178 0.418839,1.380955 0.47992,1.828306c-9.092298,12.759245 -12.059075,27.035594 -10.087041,46.962189c0.514823,5.193168 1.308872,9.958435 2.41705,14.324975c-5.802666,-0.0389 -14.057286,0.194501 -20.017017,0.622402c-10.139396,0.748828 -22.844181,2.431258 -27.128555,3.588538c-4.223294,1.147554 -2.347244,1.186454 3.394342,0.068075c9.624573,-1.886657 23.664407,-3.112011 37.067257,-3.218986c2.530486,-0.009725 4.895182,-0.068075 6.928296,-0.126425c0.610807,2.304833 1.308872,4.502691 2.102921,6.593573l-0.061081,0.009725c-8.856701,0.340376 -19.755242,1.633806 -30.234945,3.598263c-7.861958,1.46848 -19.467291,4.40544 -20.819792,5.251518c-1.422308,0.884978 -0.261774,0.690477 5.828844,-1.030854c11.107961,-3.131461 25.549183,-5.533544 43.437101,-7.20625l1.998211,-0.194501c3.839358,9.938985 9.75546,17.524511 18.114789,23.437332c5.113327,3.627438 13.306866,7.352126 17.434176,7.935628c1.134356,0.155601 4.432713,0.914153 7.329684,1.672706c2.905696,0.758553 8.586201,1.896382 12.617527,2.547959l0.095984,0c-0.078532,0.05835 -0.148339,0.09725 -0.218145,0.155601c-4.886456,2.829985 -8.062652,7.235425 -10.200476,14.169374c-0.95984,0.320926 -2.155276,0.758553 -3.446696,1.254529c-4.615956,1.750506 -6.413473,2.110332 -11.090509,2.149233c-4.851552,0.0389 -6.00336,-0.194501 -8.90033,-1.711606c-4.214568,-2.188133 -8.141184,-6.214297 -10.758928,-11.018463c-4.371633,-8.032878 -11.928187,-13.712298 -18.228225,-13.712298c-5.383827,0 -6.404747,2.431258 -2.513034,5.980896c5.863747,5.339044 10.244105,10.785063 12.041623,14.947377c1.012194,2.334008 2.565389,5.941996 3.464148,8.013428c0.951114,2.207583 2.984228,5.202893 4.921359,7.274325c4.554875,4.843067 8.952685,7.157625 15.514497,8.246829c4.39781,0.719653 5.479811,0.719653 10.67167,-0.01945c2.504309,-0.340376 4.615956,-0.739103 6.509457,-1.235079c0,2.372908 0,5.105643 0,8.314904c0,17.17441 -0.183242,22.698229 -0.794049,24.312585c-1.151807,3.073111 -3.734648,6.233747 -6.247683,7.653602c-2.504309,1.419855 -3.280906,2.985585 -2.225083,4.42489c0.58463,0.778003 1.71026,0.914153 5.488537,0.641852c7.172619,-0.495977 12.242317,-3.452387 14.825158,-8.665005c0.828952,-1.672706 1.02092,-5.037568 1.282695,-22.542629c0.279226,-18.992991 0.401387,-20.821298 1.509566,-23.534582c0.671888,-1.614356 1.640453,-3.364862 2.181453,-3.841388c0.907485,-0.836353 0.968565,0.816903 0.968565,23.534582c-0.008726,25.071138 -0.235597,28.095623 -2.486857,32.91924c-0.506097,1.098929 -1.465937,2.528509 -2.137824,3.209261c-1.177985,1.196179 -1.675356,4.259565 -0.85513,5.183443c1.352501,1.497655 8.132458,-0.855803 11.832204,-4.103964c6.300038,-5.562719 7.050458,-10.16266 7.102812,-43.383376l0.026177,-19.488968l1.910953,0.204226l1.910953,0.194501l0.314129,25.489314c0.357758,28.698575 0.410113,29.116752 4.790472,34.660021c2.486857,3.131461 4.991165,4.862517 9.066121,6.214297c5.453634,1.828306 7.094087,-0.991953 3.429245,-5.883646c-3.987697,-5.319594 -4.179665,-7.352126 -3.961519,-38.841786c0.148339,-20.18917 0.148339,-20.18917 1.317598,-19.012441c2.460679,2.489609 2.931873,6.574123 2.931873,25.508764c0,23.515132 0.602081,25.75189 8.053926,29.855854c3.4816,1.896382 4.458891,2.129782 8.917782,2.149233c4.746843,0.01945 5.034795,-0.05835 5.209311,-1.439305c0.148339,-1.118379 -0.436291,-1.876932 -2.652647,-3.384312c-2.905696,-1.993632 -4.921359,-4.541591 -6.186602,-7.750852c-0.47992,-1.235079 -0.802775,-9.326308 -1.02092,-25.985291c-0.314129,-23.272006 -0.383936,-24.332035 -1.684082,-27.978923c-1.753889,-4.901417 -4.432713,-8.771981 -7.827055,-11.33939c-0.881307,-0.641852 -1.762614,-1.176729 -2.905696,-1.575455c1.404856,-0.155601 2.766083,-0.320926 4.083681,-0.534877c13.716979,-2.032532 20.968131,-3.724688 26.788248,-6.233747c12.312123,-5.280693 20.63655,-14.052674 25.147795,-26.490992c0.401387,-1.108654 0.802775,-2.158958 1.143082,-3.005035l3.472874,0.320926c17.896644,1.682431 32.337866,4.084514 43.445827,7.2257c6.090618,1.721331 7.251151,1.925557 5.828844,1.021129c-1.326324,-0.826628 -12.931656,-3.753863 -20.784888,-5.222343zm-52.477044,-0.301476c-2.033115,4.979217 -7.704894,11.37829 -12.285946,13.887348c-4.519972,2.489609 -11.605332,4.38599 -19.633081,5.290418c-5.488537,0.622402 -36.098692,0.807178 -41.150938,0.252851c-16.727385,-1.828306 -26.098909,-5.416844 -33.009754,-12.603644c-6.54436,-6.826974 -9.598395,-16.094931 -9.066121,-27.502396c0.340307,-7.138175 1.884776,-11.621416 5.924828,-17.067435c3.673568,-4.959767 7.539103,-8.023153 12.093978,-9.579158c3.813181,-1.303155 15.514497,-1.419855 31.247139,-0.291751c6.954474,0.495977 12.704785,0.495977 19.650533,0c16.456885,-1.157279 27.442684,-1.030854 31.500188,0.369551c6.37857,2.197858 12.189962,8.110678 15.680287,15.987956c1.570646,3.520462 1.87605,5.018118 2.102921,10.454411c0.314129,7.488276 -0.846404,15.443354 -3.054035,20.801848zm-82.982489,-32.150962c-9.362798,-1.828306 -14.711722,16.036581 -7.530377,25.158663c3.411793,4.32764 6.439651,5.037568 10.226654,2.411808c3.507777,-2.440984 5.410005,-7.002024 5.410005,-12.914845c0,-7.887003 -3.219825,-13.683123 -8.106281,-14.655626zm56.831225,1.069754c-9.362798,-1.828306 -14.720448,16.017131 -7.539103,25.148938c3.420519,4.32764 6.439651,5.047293 10.23538,2.402083c3.499051,-2.431258 5.410005,-7.002024 5.410005,-12.914845c0,-7.857827 -3.219825,-13.673398 -8.106281,-14.636176zm-25.182699,35.126823c-0.200694,0.719653 -1.177985,1.789406 -2.164002,2.363183c-2.495583,1.42958 -4.2931,0.933603 -6.928296,-1.740781c-1.631727,-1.643531 -2.373421,-2.509059 -2.870793,-0.787728c-0.462468,1.594906 2.443228,4.794442 4.685762,5.77667c2.059292,0.914153 3.533955,0.943328 5.767763,-0.09725c2.216357,-1.030854 4.153487,-3.802488 4.153487,-5.60162c0,-1.672706 -2.155276,-1.594906 -2.643922,0.087525zm-2.766083,-5.591895c1.422308,-1.400405 1.745163,-4.279015 0.383936,-5.805845s-4.12731,-1.29343 -5.209311,0.418176c-1.256517,2.003357 -0.58463,3.530187 0.314129,5.154268c1.39613,1.205904 3.27218,1.44903 4.511246,0.233401z" fill-opacity="null" stroke-opacity="null" stroke-width="1.5" fill="#070707"/>
 </g>
</svg>