<svg width="1660" height="823" xmlns="http://www.w3.org/2000/svg" style="vector-effect: non-scaling-stroke;" stroke="null">
 <!-- Created with Method Draw - http://github.com/duopixel/Method-Draw/ -->
 <g>
  <title>background</title>
  <rect fill="#161515" id="canvas_background" height="825" width="1662" y="-1" x="-1"/>
 </g>
 <g>
  <title>Layer 1</title>
  <path id="svg_1" d="m-7051.377516,-2568.161659l0,0c0,-1533.482538 895.737479,-2776.616015 2000.685424,-2776.616015l0,0c530.614537,0 1039.496932,292.535319 1414.697957,813.251823c375.201428,520.716691 585.987468,1226.959596 585.987468,1963.364192l0,0c0,1533.482351 -895.737479,2776.616015 -2000.685424,2776.616015l0,0c-1104.947811,0 -2000.685424,-1243.133664 -2000.685424,-2776.616015zm1000.342712,0l0,0c0,766.741082 447.869008,1388.308008 1000.342712,1388.308008c552.474107,0 1000.342712,-621.566925 1000.342712,-1388.308008c0,-766.741082 -447.868874,-1388.308008 -1000.342712,-1388.308008l0,0c-552.473704,0 -1000.342712,621.567112 -1000.342712,1388.308008z" stroke-width="1.5" stroke="#070707" fill="#f4fcfc"/>
  <text font-style="normal" font-weight="bold" stroke="#070707" transform="matrix(19.241832733154297,0,0,14.06406021118164,-11656.531116485596,-4422.184381484985) " xml:space="preserve" text-anchor="start" font-family="'Simonetta', serif" font-size="26" id="svg_4" y="352.191086" x="638.178435" fill-opacity="null" stroke-opacity="null" stroke-width="0" fill="#f4fcfc">JX</text>
 </g>
</svg>