<svg width="1660" height="823" xmlns="http://www.w3.org/2000/svg">
 <!-- Created with Method Draw - http://github.com/duopixel/Method-Draw/ -->
 <g>
  <title>background</title>
  <rect fill="#fff" id="canvas_background" height="825" width="1662" y="-1" x="-1"/>
 </g>
 <g>
  <title>Layer 1</title>
  <ellipse id="svg_3" cy="409.5" cx="931.5" opacity="0.5" stroke-opacity="null" stroke-width="1.5" stroke="#000" fill="#070707"/>
  <path stroke="#000" id="svg_4" d="m905.307695,325.999993l-150.615387,0c-7.558154,0 -13.692308,5.892923 -13.692308,13.153846l0,144.69231c0,7.260923 6.134154,13.153846 13.692308,13.153846l150.615387,0c7.558154,0 13.692308,-5.892923 13.692308,-13.153846l0,-144.69231c0,-7.260923 -6.134154,-13.153846 -13.692308,-13.153846zm-109.750694,155.583695l-27.384616,0l0,-92.076925l27.384616,0l0,92.076925zm-13.692308,-101.942309c-9.468231,0 -17.115385,-7.359577 -17.115385,-16.442308s7.647154,-16.442308 17.115385,-16.442308s17.115385,7.359577 17.115385,16.442308s-7.647154,16.442308 -17.115385,16.442308zm109.538464,101.942309l-27.384616,0l0,-55.903847c0,-2.630769 -2.759,-6.938654 -4.703308,-7.977808c-2.567308,-1.387731 -8.633,-1.506115 -11.398846,-0.223615l-11.282462,5.2155l0,58.88977l-27.384616,0l0,-92.076925l27.384616,0l0,4.038231c10.837462,-4.755115 25.878462,-4.288154 36.079231,1.210154c10.830616,5.827154 18.69,18.836308 18.69,30.924693l0,55.903847z" fill-opacity="null" stroke-opacity="null" stroke-width="1.5" fill="#070707"/>
 </g>
</svg>